<svg xmlns="http://www.w3.org/2000/svg" viewBox="0 0 354.77 421.92"><defs><style>.cls-1{fill:#020202;}.cls-2{fill:#010101;}.cls-3{font-size:194px;font-family:BebasNeue-Regular, Bebas Neue;letter-spacing:0.01em;}.cls-4{letter-spacing:0.06em;}</style></defs><g id="Layer_1" data-name="Layer 1"><path class="cls-1" d="M2439.4,2668.11a28.53,28.53,0,0,0-3.65-1.34,52.61,52.61,0,0,1-41-50.21c-.18-7.64,2.14-14.74,5.37-21.54,8.81-18.53,21.47-34.38,34.73-49.81,4-4.63,8.2-9,13.06-14.38,10.43,12.84,21.13,25,30.66,38.06a190.53,190.53,0,0,1,17.09,28.81c13.69,28-6.43,64.2-39.45,69.66a8.33,8.33,0,0,0-1.82.75Zm7.35-103.77c-8.37,12.48-16.62,24.16-24.11,36.31a35,35,0,0,0-5.07,15c-.92,11.51,7.16,23,18.13,27.59a30.14,30.14,0,0,0,33.09-6.68c6.75-6.95,12.12-19.24,5.41-32.26C2467,2590.24,2457.6,2577.75,2446.75,2564.34Z" transform="translate(-2145.23 -2284.99)"/><path class="cls-2" d="M2214.3,2397.5c12.14,0,24,.39,35.82-.1,12.36-.52,20.53-9.64,20.63-22.13.08-11.22,0-22.44,0-34h33.54v-22.62h-55.94v-22.55h56.06V2285h22.49v11h56.34v22.55H2327.3V2341h33.57v9.89c0,8.85,0,17.71,0,26.57,0,12.29,7.51,19.69,19.88,19.7,44.94.07,82.58,25.7,97.9,66.61,5.57,14.85,6.94,30.24,6.24,46.21H2406c0-3.09,0-6.28,0-9.48-.12-14.73-9.43-24-24.14-24q-82.17,0-164.34,0h-2.78c-1.28,4.06-2.07,8.12-3.77,11.75-6.45,13.71-17.37,21.29-32.56,21.9-10.44.42-20.92.08-31.57.08V2363.93a18.13,18.13,0,0,1,2.4-.28c10.11,0,20.24-.37,30.31.3,18.34,1.21,31.61,13.93,34.46,32.16C2214,2396.48,2214.15,2396.84,2214.3,2397.5Zm247.09,90c-.09-1-.14-1.86-.27-2.72-4.85-32.7-35.61-61.66-68.61-64.48-6.58-.56-13.28-.13-19.77-1.17-20.26-3.25-34.15-19.85-34.39-40.46-.06-4.93,0-9.87,0-14.83h-45.05c0,4.45.07,8.68,0,12.91a43.22,43.22,0,0,1-29.36,40.58,60.92,60.92,0,0,1-16.84,2.69c-10.81.41-21.64.12-32.6.12v33.77h4.23q81.6,0,163.19,0c13.73,0,25.34,4.62,34.75,14.6a45.5,45.5,0,0,1,10.54,19.21h31.95C2459.86,2487.69,2460.59,2487.58,2461.39,2487.51Zm-292.11.16c3.1,0,5.84.1,8.57,0,7.44-.32,13.69-6.21,13.74-13.64q.24-37,0-74.08a13.66,13.66,0,0,0-10.8-13.15c-3.7-.68-7.58-.44-11.52-.62Z" transform="translate(-2145.23 -2284.99)"/></g><g id="Layer_2" data-name="Layer 2"><text class="cls-3" transform="translate(0 383.12)">T<tspan class="cls-4" x="73.34" y="0">AP</tspan></text></g></svg>